<svg preserveAspectRatio="none" width="100%" height="100%" overflow="visible" style="display: block;" viewBox="0 0 137.22 137.22" fill="none" xmlns="http://www.w3.org/2000/svg">
<g id="Group 2842">
<circle id="Ellipse 2" cx="68.6102" cy="68.6102" r="68.6102" fill="url(#paint0_linear_0_652)"/>
<circle id="Ellipse 3" cx="68.6102" cy="68.6102" r="59.081" fill="url(#paint1_linear_0_652)"/>
<path id="Vector 417" d="M44.4696 24.1406H33.9875C35.258 20.0113 44.4696 6.98805 83.857 11.7526C84.007 11.7707 84.1532 11.8213 84.3035 11.8582C98.4065 15.3254 125.177 33.9779 127.691 62.8926C129.724 86.2709 117.103 103.974 110.539 109.903C104.694 94.4025 87.351 89.892 79.41 89.5744V86.0803C85.7628 83.5392 90.1039 72.1042 91.4803 66.7043C96.2449 69.2454 99.739 67.0219 101.327 58.128C102.598 51.0129 98.6802 49.4458 96.5626 49.5517C98.6802 42.3519 97.8966 26.3641 77.8218 20.0113C57.747 13.6585 47.2225 20.1171 44.4696 24.1406Z" fill="url(#paint2_linear_0_652)"/>
<path id="Vector 418" d="M59.0809 93.7038C41.8013 92.6873 30.4933 104.292 26.9992 110.221C21.1759 103.551 9.5292 86.144 9.5292 69.8808C9.5292 53.6176 19.4818 38.5403 24.4581 33.0346C24.204 35.8298 34.0932 37.1639 39.0696 37.4815L40.3401 48.2813C35.512 51.8389 37.4814 58.0222 39.0696 60.6692C31.7003 82.5229 49.3399 89.0451 59.0809 89.5745V93.7038Z" fill="url(#paint3_linear_0_652)"/>
<path id="Vector 419" d="M36.8462 53.6811C36.8462 46.8201 43.4108 46.1636 46.6931 46.693C49.2342 46.4813 54.4435 47.7095 54.9517 54.3164C55.4599 60.9234 48.8107 62.7868 45.4225 62.8927C42.5638 62.681 36.8462 60.5422 36.8462 53.6811Z" fill="var(--fill-0, white)"/>
<path id="Vector 421" d="M59.7163 89.8921C39.3874 88.3674 36.4227 73.7984 37.4815 66.7044L51.7758 67.975C55.3334 73.0572 61.305 70.0926 63.8461 67.975C67.15 71.5325 83.2223 68.6102 90.8455 66.7044C88.9395 75.0689 80.0453 91.4168 59.7163 89.8921Z" fill="var(--fill-0, #151515)"/>
<path id="Vector 423" d="M68.9279 128.327C52.1565 130.359 33.9875 117.739 26.9994 111.174C29.2229 108.421 34.5592 102.089 38.1168 98.786C41.6744 95.4826 53.787 93.5979 59.3987 93.0685C59.3987 94.3391 61.3045 96.9437 68.9279 97.1978C76.5512 97.4519 79.5159 92.645 80.0453 90.2098C97.579 88.9392 107.256 103.657 109.903 111.174C103.233 116.044 85.6993 126.294 68.9279 128.327Z" fill="url(#paint4_linear_0_652)"/>
<path id="Vector 420" d="M62.8927 53.6811C62.8927 46.8201 69.4573 46.1636 72.7396 46.693C75.2807 46.4813 80.49 47.7095 80.9982 54.3164C81.5064 60.9234 74.8572 62.7868 71.469 62.8927C68.6102 62.681 62.8927 60.5422 62.8927 53.6811Z" fill="var(--fill-0, white)"/>
<path id="Vector 422" d="M68.2926 37.4815C77.4406 38.2439 90.3157 40.3403 95.6096 41.2932C95.9272 41.6108 96.3718 41.1026 95.6096 36.5286C94.657 30.8111 84.1744 18.1055 69.2453 17.7879C57.302 17.5337 48.3871 21.9172 45.4225 24.1406C37.2698 23.7171 21.4089 24.3312 23.1877 30.1758C24.9665 36.0204 34.5169 36.8462 39.0697 36.5286C44.999 36.5286 59.1446 36.7192 68.2926 37.4815Z" fill="url(#paint5_linear_0_652)" stroke="var(--stroke-0, black)" stroke-width="0.63528"/>
</g>
<defs>
<linearGradient id="paint0_linear_0_652" x1="120.928" y1="68.6102" x2="-1.34751e-08" y2="68.6102" gradientUnits="userSpaceOnUse">
<stop stop-color="#BFF0FF"/>
<stop offset="1" stop-color="#82B4FF"/>
</linearGradient>
<linearGradient id="paint1_linear_0_652" x1="113.661" y1="68.6102" x2="9.5292" y2="68.6102" gradientUnits="userSpaceOnUse">
<stop stop-color="#A9FE81"/>
<stop offset="1" stop-color="#C0F0FF"/>
</linearGradient>
<linearGradient id="paint2_linear_0_652" x1="116.758" y1="60.3112" x2="33.9875" y2="60.3112" gradientUnits="userSpaceOnUse">
<stop stop-color="#DBA6F4"/>
<stop offset="1" stop-color="#A981FE"/>
</linearGradient>
<linearGradient id="paint3_linear_0_652" x1="53.1974" y1="71.6278" x2="9.5292" y2="71.6278" gradientUnits="userSpaceOnUse">
<stop stop-color="#DBA6F4"/>
<stop offset="1" stop-color="#A981FE"/>
</linearGradient>
<linearGradient id="paint4_linear_0_652" x1="100.06" y1="109.339" x2="26.9994" y2="109.339" gradientUnits="userSpaceOnUse">
<stop stop-color="#FEBD81"/>
<stop offset="0.489583" stop-color="#FFE598"/>
<stop offset="1" stop-color="#BFF4A6"/>
</linearGradient>
<linearGradient id="paint5_linear_0_652" x1="87.3652" y1="29.5734" x2="23.0498" y2="29.5734" gradientUnits="userSpaceOnUse">
<stop stop-color="#FE83EA"/>
<stop offset="1" stop-color="#FBAE96"/>
</linearGradient>
</defs>
</svg>
