<svg width="56" height="56" viewBox="0 0 56 56" fill="none" xmlns="http://www.w3.org/2000/svg">
<path d="M23.8055 31.7103C23.8055 32.5782 24.5091 33.2818 25.3771 33.2818C26.245 33.2818 26.9486 32.5782 26.9486 31.7103H25.3771H23.8055ZM36.6922 37.6821C35.8243 37.6821 35.1207 38.3857 35.1207 39.2537C35.1207 40.1216 35.8243 40.8252 36.6922 40.8252V39.2537V37.6821ZM40.7782 46.7971C40.7782 47.665 41.4818 48.3686 42.3498 48.3686C43.2177 48.3686 43.9213 47.665 43.9213 46.7971H42.3498H40.7782ZM14.062 40.8252C14.9299 40.8252 15.6335 40.1216 15.6335 39.2537C15.6335 38.3857 14.9299 37.6821 14.062 37.6821V39.2537V40.8252ZM6.83286 46.7971C6.83286 47.665 7.53647 48.3686 8.40441 48.3686C9.27235 48.3686 9.97595 47.665 9.97595 46.7971H8.40441H6.83286ZM6.51855 30.1387C5.65061 30.1387 4.94701 30.8423 4.94701 31.7103C4.94701 32.5782 5.65061 33.2818 6.51855 33.2818V31.7103V30.1387ZM12.1761 33.2818C13.0441 33.2818 13.7477 32.5782 13.7477 31.7103C13.7477 30.8423 13.0441 30.1387 12.1761 30.1387V31.7103V33.2818ZM38.5781 30.1387C37.7101 30.1387 37.0065 30.8423 37.0065 31.7103C37.0065 32.5782 37.7101 33.2818 38.5781 33.2818V31.7103V30.1387ZM44.2356 33.2818C45.1036 33.2818 45.8072 32.5782 45.8072 31.7103C45.8072 30.8423 45.1036 30.1387 44.2356 30.1387V31.7103V33.2818ZM38.5781 22.5953C37.7101 22.5953 37.0065 23.2989 37.0065 24.1668C37.0065 25.0348 37.7101 25.7384 38.5781 25.7384V24.1668V22.5953ZM45.8072 16.6234C45.8072 15.7555 45.1036 15.0519 44.2356 15.0519C43.3677 15.0519 42.6641 15.7555 42.6641 16.6234H44.2356H45.8072ZM12.1761 25.7384C13.0441 25.7384 13.7477 25.0348 13.7477 24.1668C13.7477 23.2989 13.0441 22.5953 12.1761 22.5953V24.1668V25.7384ZM8.0901 16.6234C8.0901 15.7555 7.38649 15.0519 6.51855 15.0519C5.65061 15.0519 4.94701 15.7555 4.94701 16.6234H6.51855H8.0901ZM18.6083 13.963C19.222 14.5767 20.217 14.5767 20.8308 13.963C21.4445 13.3492 21.4445 12.3542 20.8308 11.7405L19.7195 12.8517L18.6083 13.963ZM17.0591 7.96877C16.4453 7.35504 15.4503 7.35504 14.8366 7.96877C14.2228 8.58249 14.2228 9.57754 14.8366 10.1913L15.9478 9.08002L17.0591 7.96877ZM29.9234 11.7405C29.3097 12.3542 29.3097 13.3492 29.9234 13.963C30.5371 14.5767 31.5322 14.5767 32.1459 13.963L31.0346 12.8517L29.9234 11.7405ZM35.9176 10.1913C36.5313 9.57754 36.5313 8.58249 35.9176 7.96877C35.3039 7.35504 34.3088 7.35504 33.6951 7.96877L34.8063 9.08002L35.9176 10.1913ZM25.3771 24.1668L23.8055 24.1668L23.8055 31.7103H25.3771H26.9486L26.9486 24.1668H25.3771ZM38.5781 29.8244H37.0065C37.0065 38.7206 31.4552 45.2255 25.3771 45.2255V46.7971V48.3686C33.8804 48.3686 40.1496 39.6756 40.1496 29.8244H38.5781ZM25.3771 46.7971V45.2255C19.299 45.2255 13.7477 38.7206 13.7477 29.8244H12.1761H10.6046C10.6046 39.6756 16.8738 48.3686 25.3771 48.3686V46.7971ZM12.1761 29.8244H13.7477C13.7477 20.9281 19.299 14.4233 25.3771 14.4233V12.8517V11.2802C16.8738 11.2802 10.6046 19.9731 10.6046 29.8244H12.1761ZM25.3771 12.8517V14.4233C31.4552 14.4233 37.0065 20.9281 37.0065 29.8244H38.5781H40.1496C40.1496 19.9731 33.8804 11.2802 25.3771 11.2802V12.8517ZM36.6922 39.2537V40.8252C37.6489 40.8252 38.6349 41.3386 39.4355 42.406C40.2364 43.4739 40.7782 45.0212 40.7782 46.7971H42.3498H43.9213C43.9213 44.4069 43.1967 42.1824 41.9499 40.5202C40.7029 38.8574 38.8601 37.6821 36.6922 37.6821V39.2537ZM14.062 39.2537V37.6821C11.8941 37.6821 10.0513 38.8574 8.80423 40.5201C7.55751 42.1824 6.83286 44.4069 6.83286 46.7971H8.40441H9.97595C9.97595 45.0212 10.5178 43.4739 11.3187 42.406C12.1193 41.3386 13.1052 40.8252 14.062 40.8252V39.2537ZM6.51855 31.7103V33.2818H12.1761V31.7103V30.1387H6.51855V31.7103ZM38.5781 31.7103V33.2818H44.2356V31.7103V30.1387H38.5781V31.7103ZM38.5781 24.1668V25.7384C40.7459 25.7384 42.5887 24.5631 43.8358 22.9004C45.0825 21.2381 45.8072 19.0136 45.8072 16.6234H44.2356H42.6641C42.6641 18.3993 42.1222 19.9466 41.3213 21.0145C40.5208 22.0819 39.5348 22.5953 38.5781 22.5953V24.1668ZM12.1761 24.1668V22.5953C11.2194 22.5953 10.2334 22.0819 9.43285 21.0145C8.63194 19.9466 8.0901 18.3993 8.0901 16.6234H6.51855H4.94701C4.94701 19.0136 5.67166 21.2381 6.91838 22.9004C8.16546 24.5631 10.0083 25.7384 12.1761 25.7384V24.1668ZM36.6922 20.3951L35.7701 19.1225C32.7092 21.3403 29.1559 22.5953 25.3771 22.5953V24.1668V25.7384C29.876 25.7384 34.0657 24.2388 37.6143 21.6678L36.6922 20.3951ZM25.3771 24.1668V22.5953C21.5982 22.5953 18.045 21.3403 14.984 19.1225L14.062 20.3951L13.1399 21.6678C16.6885 24.2388 20.8782 25.7384 25.3771 25.7384V24.1668ZM19.7195 12.8517L20.8308 11.7405L17.0591 7.96877L15.9478 9.08002L14.8366 10.1913L18.6083 13.963L19.7195 12.8517ZM31.0346 12.8517L32.1459 13.963L35.9176 10.1913L34.8063 9.08002L33.6951 7.96877L29.9234 11.7405L31.0346 12.8517Z" fill="url(#paint0_linear_1015_29533)"/>
<defs>
<linearGradient id="paint0_linear_1015_29533" x1="39.7573" y1="27.9385" x2="6.51855" y2="27.9385" gradientUnits="userSpaceOnUse">
<stop stop-color="#BFF0FF"/>
<stop offset="1" stop-color="#82B4FF"/>
</linearGradient>
</defs>
</svg>
