<svg width="48" height="48" viewBox="0 0 48 48" fill="none" xmlns="http://www.w3.org/2000/svg">
<path d="M0.697266 23.9805C0.697266 26.4296 1.11742 28.7805 1.88958 30.9652M26.3394 16.9958H46.101M21.6512 30.9652H1.88958M46.101 16.9958C43.2245 8.85738 35.4629 3.02655 26.3394 3.02655C30.0667 3.02655 33.1121 11.7853 33.3135 22.8164M46.101 16.9958C46.75 18.832 47.1503 20.7857 47.2615 22.8164M1.88958 30.9652C4.76611 39.1036 12.5277 44.9344 21.6512 44.9344C18.056 44.9344 15.0952 36.7856 14.7092 26.3087" stroke="url(#paint0_linear_1015_29545)" stroke-width="1.39693" stroke-linecap="round" stroke-linejoin="round"/>
<path d="M0.697266 8.37534C0.697266 5.8181 0.697266 4.53948 1.13354 3.54789C1.59619 2.49633 2.39363 1.65116 3.3858 1.16081C4.32139 0.698425 5.52779 0.698425 7.9406 0.698425H10.0101C14.4002 0.698425 16.5953 0.698425 17.9591 2.1439C19.323 3.58937 19.323 5.91583 19.323 10.5687V15.8283C19.323 17.858 19.323 18.8728 18.7082 19.2215C18.0933 19.5702 17.2967 19.0073 15.7033 17.8815L15.4605 17.71C14.296 16.8872 13.7138 16.4758 13.0539 16.264C12.394 16.0522 11.6942 16.0522 10.2947 16.0522H7.9406C5.52779 16.0522 4.32139 16.0522 3.3858 15.5899C2.39363 15.0995 1.59619 14.2543 1.13354 13.2028C0.697266 12.2112 0.697266 10.9326 0.697266 8.37534Z" stroke="url(#paint1_linear_1015_29545)" stroke-width="1.39693"/>
<path d="M47.2605 36.3138C47.2605 33.7566 47.2605 32.478 46.8242 31.4864C46.3615 30.4348 45.5641 29.5896 44.5719 29.0993C43.6364 28.6369 42.4299 28.6369 40.0171 28.6369H37.9476C33.5575 28.6369 31.3624 28.6369 29.9986 30.0824C28.6348 31.5278 28.6348 33.8543 28.6348 38.5072V43.7668C28.6348 45.7964 28.6348 46.8112 29.2496 47.16C29.8644 47.5087 30.6611 46.9458 32.2544 45.82L32.4972 45.6484C33.6617 44.8256 34.2439 44.4142 34.9038 44.2025C35.5637 43.9907 36.2635 43.9907 37.663 43.9907H40.0171C42.4299 43.9907 43.6364 43.9907 44.5719 43.5283C45.5641 43.038 46.3615 42.1928 46.8242 41.1413C47.2605 40.1497 47.2605 38.871 47.2605 36.3138Z" stroke="url(#paint2_linear_1015_29545)" stroke-width="1.39693"/>
<defs>
<linearGradient id="paint0_linear_1015_29545" x1="41.7328" y1="23.9805" x2="0.697266" y2="23.9805" gradientUnits="userSpaceOnUse">
<stop stop-color="#BFF0FF"/>
<stop offset="1" stop-color="#82B4FF"/>
</linearGradient>
<linearGradient id="paint1_linear_1015_29545" x1="17.1115" y1="10.0113" x2="0.697266" y2="10.0113" gradientUnits="userSpaceOnUse">
<stop stop-color="#BFF0FF"/>
<stop offset="1" stop-color="#82B4FF"/>
</linearGradient>
<linearGradient id="paint2_linear_1015_29545" x1="45.049" y1="37.9497" x2="28.6348" y2="37.9497" gradientUnits="userSpaceOnUse">
<stop stop-color="#BFF0FF"/>
<stop offset="1" stop-color="#82B4FF"/>
</linearGradient>
</defs>
</svg>
